<svg xmlns="http://www.w3.org/2000/svg" xmlns:xlink="http://www.w3.org/1999/xlink" viewBox="0 0 132.85 125.81"><defs><style>.cls-1{fill:url(#linear-gradient);}.cls-2{fill:url(#linear-gradient-2);}.cls-3{fill:url(#linear-gradient-3);}.cls-4{fill:url(#linear-gradient-4);}.cls-5{fill:url(#linear-gradient-5);}.cls-6{fill:url(#linear-gradient-6);}.cls-7{fill:url(#linear-gradient-7);}.cls-8{fill:url(#linear-gradient-8);}.cls-9{fill:#ef4848;}.cls-10{fill:url(#radial-gradient);}.cls-11{fill:url(#linear-gradient-9);}.cls-12{fill:none;stroke:#f0717f;stroke-miterlimit:10;stroke-width:0.25px;}</style><linearGradient id="linear-gradient" x1="65.55" y1="90.57" x2="71.92" y2="96.21" gradientTransform="translate(-45.38 72.39) rotate(-42.86)" gradientUnits="userSpaceOnUse"><stop offset="0" stop-color="#f89c1b"/><stop offset="0.26" stop-color="#f4961d"/><stop offset="0.62" stop-color="#e88522"/><stop offset="1" stop-color="#d56b2a"/></linearGradient><linearGradient id="linear-gradient-2" x1="64.52" y1="86.72" x2="69.72" y2="93.55" gradientTransform="translate(-45.38 72.39) rotate(-42.86)" gradientUnits="userSpaceOnUse"><stop offset="0" stop-color="#f0717f"/><stop offset="0.06" stop-color="#f0717f" stop-opacity="0.88"/><stop offset="0.2" stop-color="#f0717f" stop-opacity="0.65"/><stop offset="0.34" stop-color="#f0717f" stop-opacity="0.45"/><stop offset="0.48" stop-color="#f0717f" stop-opacity="0.29"/><stop offset="0.62" stop-color="#f0717f" stop-opacity="0.16"/><stop offset="0.75" stop-color="#f0717f" stop-opacity="0.07"/><stop offset="0.88" stop-color="#f0717f" stop-opacity="0.02"/><stop offset="1" stop-color="#f0717f" stop-opacity="0"/></linearGradient><linearGradient id="linear-gradient-3" x1="84.75" y1="82.31" x2="92.55" y2="88.17" gradientTransform="translate(-34.08 82.97) rotate(-42.86)" xlink:href="#linear-gradient"/><linearGradient id="linear-gradient-4" x1="83.87" y1="77.88" x2="90.04" y2="86" gradientTransform="translate(-34.08 82.97) rotate(-42.86)" xlink:href="#linear-gradient-2"/><linearGradient id="linear-gradient-5" x1="97.87" y1="82.01" x2="105.02" y2="87.53" gradientTransform="translate(-30.5 92.01) rotate(-42.86)" xlink:href="#linear-gradient"/><linearGradient id="linear-gradient-6" x1="97.62" y1="75.42" x2="103.14" y2="85.5" gradientTransform="translate(-30.5 92.01) rotate(-42.86)" xlink:href="#linear-gradient-2"/><linearGradient id="linear-gradient-7" x1="66.86" y1="65.76" x2="65.56" y2="123.62" gradientUnits="userSpaceOnUse"><stop offset="0" stop-color="#fff45f"/><stop offset="0.01" stop-color="#fff25c"/><stop offset="0.12" stop-color="#fed93c"/><stop offset="0.22" stop-color="#fdc725"/><stop offset="0.32" stop-color="#fdbc18"/><stop offset="0.4" stop-color="#fdb813"/><stop offset="0.55" stop-color="#fbaf15"/><stop offset="0.75" stop-color="#f89c1b"/><stop offset="0.88" stop-color="#fbae16"/><stop offset="1" stop-color="#fdb813"/></linearGradient><linearGradient id="linear-gradient-8" x1="69.75" y1="64" x2="67.13" y2="80.58" gradientTransform="matrix(1, 0, 0, 1, 0, 0)" xlink:href="#linear-gradient-2"/><radialGradient id="radial-gradient" cx="80.82" cy="23.45" r="35.87" gradientUnits="userSpaceOnUse"><stop offset="0" stop-color="#f7acb6" stop-opacity="0"/><stop offset="0.2" stop-color="#f7acb6" stop-opacity="0.01"/><stop offset="0.34" stop-color="#f7acb6" stop-opacity="0.05"/><stop offset="0.46" stop-color="#f7acb6" stop-opacity="0.11"/><stop offset="0.56" stop-color="#f7acb6" stop-opacity="0.19"/><stop offset="0.66" stop-color="#f7acb6" stop-opacity="0.31"/><stop offset="0.75" stop-color="#f7acb6" stop-opacity="0.44"/><stop offset="0.84" stop-color="#f7acb6" stop-opacity="0.61"/><stop offset="0.92" stop-color="#f7acb6" stop-opacity="0.79"/><stop offset="1" stop-color="#f7acb6"/></radialGradient><linearGradient id="linear-gradient-9" x1="45.78" y1="26.78" x2="104.94" y2="26.78" gradientUnits="userSpaceOnUse"><stop offset="0" stop-color="#c3363e" stop-opacity="0"/><stop offset="0.22" stop-color="#c3363e" stop-opacity="0.01"/><stop offset="0.37" stop-color="#c3363e" stop-opacity="0.06"/><stop offset="0.5" stop-color="#c3363e" stop-opacity="0.14"/><stop offset="0.61" stop-color="#c3363e" stop-opacity="0.25"/><stop offset="0.72" stop-color="#c3363e" stop-opacity="0.39"/><stop offset="0.82" stop-color="#c3363e" stop-opacity="0.56"/><stop offset="0.91" stop-color="#c3363e" stop-opacity="0.76"/><stop offset="1" stop-color="#c3363e"/></linearGradient></defs><title>GH_donate</title><g id="Layer_2" data-name="Layer 2"><g id="Layer_1-2" data-name="Layer 1"><path class="cls-1" d="M75.09,63.8h0a0,0,0,0,1,0,0v54.82a5.57,5.57,0,0,1-5.57,5.57h0a5.57,5.57,0,0,1-5.57-5.57V74.94A11.14,11.14,0,0,1,75.09,63.8Z" transform="translate(82.5 -22.19) rotate(42.86)"/><path class="cls-2" d="M75.09,63.8h0a0,0,0,0,1,0,0v54.82a5.57,5.57,0,0,1-5.57,5.57h0a5.57,5.57,0,0,1-5.57-5.57V74.94A11.14,11.14,0,0,1,75.09,63.8Z" transform="translate(82.5 -22.19) rotate(42.86)"/><path class="cls-3" d="M94.22,54.7h0a0,0,0,0,1,0,0v54.82a5.57,5.57,0,0,1-5.57,5.57h0a5.57,5.57,0,0,1-5.57-5.57V65.84A11.14,11.14,0,0,1,94.22,54.7Z" transform="translate(81.42 -37.64) rotate(42.86)"/><path class="cls-4" d="M94.22,54.7h0a0,0,0,0,1,0,0v54.82a5.57,5.57,0,0,1-5.57,5.57h0a5.57,5.57,0,0,1-5.57-5.57V65.84A11.14,11.14,0,0,1,94.22,54.7Z" transform="translate(81.42 -37.64) rotate(42.86)"/><path class="cls-5" d="M107.52,54.65h0a0,0,0,0,1,0,0v54.82a5.57,5.57,0,0,1-5.57,5.57h0a5.57,5.57,0,0,1-5.57-5.57V65.8a11.14,11.14,0,0,1,11.14-11.14Z" transform="translate(84.94 -46.69) rotate(42.86)"/><path class="cls-6" d="M107.52,54.65h0a0,0,0,0,1,0,0v54.82a5.57,5.57,0,0,1-5.57,5.57h0a5.57,5.57,0,0,1-5.57-5.57V65.8a11.14,11.14,0,0,1,11.14-11.14Z" transform="translate(84.94 -46.69) rotate(42.86)"/><path class="cls-7" d="M0,94.92v28.56a2.32,2.32,0,0,0,3.72,1.86l7.94-5.94a7,7,0,0,1,5.72-1.19L73.64,121a6.43,6.43,0,0,0,3.78-.26l25.85-8.52a9.75,9.75,0,0,0,4.28-3.22l25.3-33.59h0A13.82,13.82,0,0,0,114.4,77L94.77,98.16H62.82A11.1,11.1,0,0,1,52.66,82.59l2.28-5.19h5.58A13.89,13.89,0,0,0,74.41,63.51H49.73L16,84.14,1.15,92.91A2.33,2.33,0,0,0,0,94.92Z"/><path class="cls-8" d="M0,94.92v28.56a2.32,2.32,0,0,0,3.72,1.86l7.94-5.94a7,7,0,0,1,5.72-1.19L73.64,121a6.43,6.43,0,0,0,3.78-.26l25.85-8.52a9.75,9.75,0,0,0,4.28-3.22l25.3-33.59h0A13.82,13.82,0,0,0,114.4,77L94.77,98.16H62.82A11.1,11.1,0,0,1,52.66,82.59l2.28-5.19h5.58A13.89,13.89,0,0,0,74.41,63.51H49.73L16,84.14,1.15,92.91A2.33,2.33,0,0,0,0,94.92Z"/><path class="cls-9" d="M100,5A16.77,16.77,0,0,0,76.29,5L75.36,6,74.43,5A16.78,16.78,0,0,0,50.7,28.77l.93.93h0L75.35,53.44,100,28.77A16.77,16.77,0,0,0,100,5Z"/><path class="cls-10" d="M100,5A16.77,16.77,0,0,0,76.29,5L75.36,6,74.43,5A16.78,16.78,0,0,0,50.7,28.77l.93.93h0L75.35,53.44,100,28.77A16.77,16.77,0,0,0,100,5Z"/><path class="cls-11" d="M100,5A16.77,16.77,0,0,0,76.29,5L75.36,6,74.43,5A16.78,16.78,0,0,0,50.7,28.77l.93.93h0L75.35,53.44,100,28.77A16.77,16.77,0,0,0,100,5Z"/><path class="cls-12" d="M100,5A16.77,16.77,0,0,0,76.29,5L75.36,6,74.43,5A16.78,16.78,0,0,0,50.7,28.77l.93.93h0L75.35,53.44,100,28.77A16.77,16.77,0,0,0,100,5Z"/></g></g></svg>